<svg width="77" height="77" viewBox="0 0 77 77" fill="none" xmlns="http://www.w3.org/2000/svg">
<path d="M73.4561 6.01254C71.8298 6.02524 70.5044 4.72033 70.4917 3.09403C70.479 1.46774 71.7839 0.142286 73.4102 0.129589C75.0365 0.116892 76.3619 1.42181 76.3746 3.0481C76.3872 4.66026 75.0753 5.99283 73.4561 6.01254ZM76.519 20.6333C76.5063 19.007 75.1809 17.702 73.5546 17.7147C71.9283 17.7274 70.6234 19.0529 70.6361 20.6792C70.6488 22.3055 71.9742 23.6104 73.6005 23.5977C75.2127 23.5851 76.5246 22.2525 76.519 20.6333ZM76.6492 38.2185C76.6365 36.5922 75.3111 35.2873 73.6848 35.3C72.0585 35.3127 70.7536 36.6381 70.7663 38.2644C70.779 39.8907 72.1044 41.1957 73.7307 41.183C75.357 41.1703 76.6619 39.8448 76.6492 38.2185ZM76.7866 55.8108C76.7739 54.1845 75.4485 52.8796 73.8222 52.8923C72.1959 52.905 70.8909 54.2304 70.9036 55.8567C70.9163 57.483 72.2418 58.7879 73.8681 58.7752C75.4944 58.7625 76.7993 57.4371 76.7866 55.8108ZM76.924 73.4031C76.9113 71.7768 75.5858 70.4719 73.9595 70.4845C72.3332 70.4972 71.0283 71.8227 71.041 73.449C71.0537 75.0753 72.3791 76.3802 74.0054 76.3675C75.6317 76.3548 76.9366 75.0294 76.924 73.4031ZM58.7894 3.17832C58.7767 1.55202 57.4512 0.247109 55.8249 0.259806C54.1986 0.272503 52.8937 1.59795 52.9064 3.22425C52.9191 4.85054 54.2446 6.15546 55.8709 6.14276C57.4901 6.13719 58.8021 4.80461 58.7894 3.17832ZM58.9267 20.7706C58.914 19.1443 57.5886 17.8394 55.9623 17.8521C54.336 17.8648 53.0311 19.1902 53.0438 20.8165C53.0565 22.4428 54.3819 23.7477 56.0082 23.735C57.6274 23.7153 58.9323 22.3899 58.9267 20.7706ZM59.0641 38.3629C59.0514 36.7366 57.726 35.4317 56.0997 35.4444C54.4734 35.457 53.1684 36.7825 53.1811 38.4088C53.1938 40.0351 54.5193 41.34 56.1456 41.3273C57.7647 41.3076 59.0697 39.9821 59.0641 38.3629ZM59.1943 55.9481C59.1816 54.3218 57.8562 53.0169 56.2299 53.0296C54.6036 53.0423 53.2986 54.3678 53.3113 55.9941C53.324 57.6204 54.6495 58.9253 56.2758 58.9126C57.9021 58.8999 59.207 57.5744 59.1943 55.9481ZM59.3317 73.5404C59.319 71.9141 57.9935 70.6092 56.3672 70.6219C54.7409 70.6346 53.436 71.9601 53.4487 73.5864C53.4614 75.2127 54.7868 76.5176 56.4131 76.5049C58.0394 76.4922 59.3444 75.1667 59.3317 73.5404ZM41.1971 3.31567C41.1844 1.68937 39.8589 0.384458 38.2327 0.397155C36.6064 0.409853 35.3014 1.7353 35.3141 3.3616C35.3268 4.98789 36.6523 6.29281 38.2786 6.28011C39.9049 6.26741 41.2098 4.94196 41.1971 3.31567ZM41.3345 20.9079C41.3218 19.2816 39.9963 17.9767 38.37 17.9894C36.7437 18.0021 35.4388 19.3276 35.4515 20.9539C35.4642 22.5802 36.7896 23.8851 38.4159 23.8724C40.0422 23.8597 41.3472 22.5342 41.3345 20.9079ZM41.4718 38.5002C41.4591 36.8739 40.1337 35.569 38.5074 35.5817C36.8811 35.5944 35.5761 36.9199 35.5888 38.5462C35.6015 40.1725 36.927 41.4774 38.5533 41.4647C40.1725 41.445 41.4774 40.1195 41.4718 38.5002ZM41.6092 56.0925C41.5965 54.4662 40.271 53.1613 38.6447 53.174C37.0184 53.1867 35.7135 54.5122 35.7262 56.1385C35.7389 57.7647 37.0643 59.0697 38.6906 59.057C40.3098 59.0373 41.6147 57.7118 41.6092 56.0925ZM41.7394 73.6778C41.7267 72.0515 40.4012 70.7466 38.7749 70.7593C37.1486 70.7719 35.8437 72.0974 35.8564 73.7237C35.8691 75.35 37.1946 76.6549 38.8208 76.6422C40.4471 76.6295 41.7521 75.3041 41.7394 73.6778ZM23.6048 3.453C23.5921 1.8267 22.2667 0.521787 20.6404 0.534484C19.0141 0.547181 17.7092 1.87265 17.7219 3.49895C17.7346 5.12524 19.06 6.43016 20.6863 6.41746C22.3126 6.40476 23.6175 5.07929 23.6048 3.453ZM23.7422 21.0453C23.7295 19.419 22.404 18.1141 20.7777 18.1268C19.1514 18.1395 17.8465 19.4649 17.8592 21.0912C17.8719 22.7175 19.1974 24.0224 20.8236 24.0097C22.4499 23.997 23.7549 22.6716 23.7422 21.0453ZM23.8795 38.6376C23.8668 37.0113 22.5414 35.7064 20.9151 35.7191C19.2888 35.7317 17.9839 37.0572 17.9966 38.6835C18.0092 40.3098 19.3347 41.6147 20.961 41.602C22.5873 41.5893 23.8922 40.2639 23.8795 38.6376ZM24.0169 56.2298C24.0042 54.6036 22.6787 53.2986 21.0524 53.3113C19.4261 53.324 18.1212 54.6495 18.1339 56.2758C18.1466 57.9021 19.472 59.207 21.0983 59.1943C22.7175 59.1746 24.0224 57.8491 24.0169 56.2298ZM24.1542 73.8221C24.1415 72.1958 22.8161 70.8909 21.1898 70.9036C19.5635 70.9163 18.2586 72.2418 18.2713 73.8681C18.2839 75.4944 19.6094 76.7993 21.2357 76.7866C22.8549 76.7669 24.1598 75.4414 24.1542 73.8221ZM6.01255 3.59035C5.99985 1.96405 4.6744 0.659137 3.04811 0.671834C1.42181 0.684531 0.116875 2.01 0.129572 3.6363C0.14227 5.26259 1.46772 6.56751 3.09402 6.55481C4.72031 6.54211 6.02525 5.21664 6.01255 3.59035ZM6.1499 21.1826C6.1372 19.5563 4.81175 18.2514 3.18546 18.2641C1.55916 18.2768 0.254223 19.6023 0.26692 21.2286C0.279617 22.8549 1.60507 24.1598 3.23136 24.1471C4.85766 24.1344 6.16259 22.8089 6.1499 21.1826ZM6.28724 38.7749C6.27455 37.1486 4.9491 35.8437 3.3228 35.8564C1.69651 35.8691 0.391572 37.1946 0.404269 38.8209C0.416966 40.4472 1.74242 41.7521 3.36871 41.7394C4.99501 41.7267 6.29994 40.4012 6.28724 38.7749ZM6.42459 56.3672C6.4119 54.7409 5.08645 53.436 3.46015 53.4487C1.83386 53.4614 0.528922 54.7869 0.541619 56.4132C0.554316 58.0394 1.87977 59.3444 3.50606 59.3317C5.13236 59.319 6.43729 57.9935 6.42459 56.3672ZM6.56194 73.9595C6.54925 72.3332 5.2238 71.0283 3.5975 71.041C1.97121 71.0537 0.666272 72.3791 0.678969 74.0054C0.691666 75.6317 2.01712 76.9366 3.64341 76.9239C5.26971 76.9113 6.56752 75.5788 6.56194 73.9595Z" fill="#D48BF5"/>
</svg>
