<svg width="238" height="58" viewBox="0 0 238 58" fill="none" xmlns="http://www.w3.org/2000/svg">
<rect width="238" height="58" fill="#FFF3D0"/>
<path d="M81.3525 21.5525C80.7765 21.5525 80.2525 21.4165 79.7805 21.1445C79.3165 20.8645 78.9445 20.4885 78.6645 20.0165C78.3925 19.5445 78.2565 19.0165 78.2565 18.4325C78.2565 17.8565 78.3885 17.3365 78.6525 16.8725C78.9165 16.4005 79.2725 16.0285 79.7205 15.7565C80.1685 15.4765 80.6685 15.3365 81.2205 15.3365C81.7565 15.3365 82.2365 15.4765 82.6605 15.7565C83.0925 16.0285 83.4325 16.4005 83.6805 16.8725C83.9365 17.3365 84.0645 17.8565 84.0645 18.4325V18.7085H79.1325C79.1805 19.1005 79.3045 19.4525 79.5045 19.7645C79.7125 20.0765 79.9805 20.3245 80.3085 20.5085C80.6365 20.6845 80.9965 20.7725 81.3885 20.7725C81.7005 20.7725 82.0045 20.7245 82.3005 20.6285C82.5965 20.5325 82.8445 20.3965 83.0445 20.2205L83.5965 20.8085C83.2605 21.0565 82.9085 21.2445 82.5405 21.3725C82.1805 21.4925 81.7845 21.5525 81.3525 21.5525ZM79.1565 18.0005H83.1765C83.1285 17.6405 83.0085 17.3205 82.8165 17.0405C82.6325 16.7525 82.4005 16.5285 82.1205 16.3685C81.8405 16.2005 81.5325 16.1165 81.1965 16.1165C80.8525 16.1165 80.5365 16.1965 80.2485 16.3565C79.9605 16.5165 79.7205 16.7405 79.5285 17.0285C79.3365 17.3085 79.2125 17.6325 79.1565 18.0005ZM84.188 21.4445L86.552 18.3485L84.308 15.4325H85.364L87.068 17.6885L88.772 15.4325H89.792L87.572 18.3365L89.948 21.4445H88.892L87.056 18.9965L85.196 21.4445H84.188ZM93.0595 21.5525C92.4835 21.5525 91.9595 21.4165 91.4875 21.1445C91.0235 20.8645 90.6515 20.4885 90.3715 20.0165C90.0995 19.5445 89.9635 19.0165 89.9635 18.4325C89.9635 17.8565 90.0955 17.3365 90.3595 16.8725C90.6235 16.4005 90.9795 16.0285 91.4275 15.7565C91.8755 15.4765 92.3755 15.3365 92.9275 15.3365C93.4635 15.3365 93.9435 15.4765 94.3675 15.7565C94.7995 16.0285 95.1395 16.4005 95.3875 16.8725C95.6435 17.3365 95.7715 17.8565 95.7715 18.4325V18.7085H90.8395C90.8875 19.1005 91.0115 19.4525 91.2115 19.7645C91.4195 20.0765 91.6875 20.3245 92.0155 20.5085C92.3435 20.6845 92.7035 20.7725 93.0955 20.7725C93.4075 20.7725 93.7115 20.7245 94.0075 20.6285C94.3035 20.5325 94.5515 20.3965 94.7515 20.2205L95.3035 20.8085C94.9675 21.0565 94.6155 21.2445 94.2475 21.3725C93.8875 21.4925 93.4915 21.5525 93.0595 21.5525ZM90.8635 18.0005H94.8835C94.8355 17.6405 94.7155 17.3205 94.5235 17.0405C94.3395 16.7525 94.1075 16.5285 93.8275 16.3685C93.5475 16.2005 93.2395 16.1165 92.9035 16.1165C92.5595 16.1165 92.2435 16.1965 91.9555 16.3565C91.6675 16.5165 91.4275 16.7405 91.2355 17.0285C91.0435 17.3085 90.9195 17.6325 90.8635 18.0005ZM97.0129 21.4445V15.4325H97.9009V16.2845C98.0849 15.9725 98.3169 15.7325 98.5969 15.5645C98.8849 15.3885 99.2129 15.3005 99.5809 15.3005C99.7889 15.3005 99.9769 15.3285 100.145 15.3845V16.2005C100.041 16.1605 99.9369 16.1325 99.8329 16.1165C99.7289 16.1005 99.6249 16.0925 99.5209 16.0925C99.1529 16.0925 98.8289 16.2005 98.5489 16.4165C98.2769 16.6245 98.0609 16.9285 97.9009 17.3285V21.4445H97.0129ZM103.523 21.5525C102.955 21.5525 102.439 21.4165 101.975 21.1445C101.511 20.8645 101.143 20.4885 100.871 20.0165C100.599 19.5445 100.463 19.0165 100.463 18.4325C100.463 17.8485 100.599 17.3245 100.871 16.8605C101.143 16.3885 101.511 16.0125 101.975 15.7325C102.439 15.4525 102.955 15.3125 103.523 15.3125C103.963 15.3125 104.387 15.3965 104.795 15.5645C105.203 15.7245 105.563 15.9565 105.875 16.2605L105.311 16.9085C105.071 16.6525 104.795 16.4605 104.483 16.3325C104.179 16.1965 103.863 16.1285 103.535 16.1285C103.127 16.1285 102.755 16.2325 102.419 16.4405C102.091 16.6405 101.827 16.9165 101.627 17.2685C101.435 17.6125 101.339 18.0005 101.339 18.4325C101.339 18.8645 101.435 19.2565 101.627 19.6085C101.827 19.9605 102.095 20.2405 102.431 20.4485C102.767 20.6485 103.139 20.7485 103.547 20.7485C103.875 20.7485 104.183 20.6845 104.471 20.5565C104.767 20.4285 105.043 20.2405 105.299 19.9925L105.851 20.5925C105.531 20.8965 105.171 21.1325 104.771 21.3005C104.371 21.4685 103.955 21.5525 103.523 21.5525ZM106.892 21.4445V15.4325H107.78V21.4445H106.892ZM107.336 14.2805C107.176 14.2805 107.036 14.2205 106.916 14.1005C106.796 13.9805 106.736 13.8405 106.736 13.6805C106.736 13.5125 106.796 13.3725 106.916 13.2605C107.036 13.1405 107.176 13.0805 107.336 13.0805C107.504 13.0805 107.644 13.1405 107.756 13.2605C107.876 13.3725 107.936 13.5125 107.936 13.6805C107.936 13.8405 107.876 13.9805 107.756 14.1005C107.644 14.2205 107.504 14.2805 107.336 14.2805ZM111.214 21.5645C110.718 21.5645 110.25 21.4845 109.81 21.3245C109.378 21.1565 109.002 20.9245 108.682 20.6285L109.222 20.0525C109.502 20.3085 109.81 20.5085 110.146 20.6525C110.482 20.7885 110.826 20.8565 111.178 20.8565C111.658 20.8565 112.05 20.7565 112.354 20.5565C112.658 20.3565 112.81 20.0965 112.81 19.7765C112.81 19.5125 112.718 19.3085 112.534 19.1645C112.358 19.0125 112.078 18.9085 111.694 18.8525L110.65 18.7085C110.05 18.6205 109.602 18.4405 109.306 18.1685C109.018 17.8965 108.874 17.5285 108.874 17.0645C108.874 16.7285 108.97 16.4285 109.162 16.1645C109.354 15.9005 109.618 15.6925 109.954 15.5405C110.298 15.3885 110.69 15.3125 111.13 15.3125C111.57 15.3125 111.982 15.3765 112.366 15.5045C112.75 15.6325 113.126 15.8325 113.494 16.1045L113.026 16.7045C112.69 16.4725 112.362 16.3045 112.042 16.2005C111.73 16.0885 111.41 16.0325 111.082 16.0325C110.666 16.0325 110.33 16.1245 110.074 16.3085C109.818 16.4925 109.69 16.7325 109.69 17.0285C109.69 17.3005 109.778 17.5085 109.954 17.6525C110.13 17.7885 110.414 17.8845 110.806 17.9405L111.85 18.0845C112.45 18.1645 112.898 18.3405 113.194 18.6125C113.498 18.8845 113.65 19.2565 113.65 19.7285C113.65 20.0725 113.542 20.3845 113.326 20.6645C113.11 20.9445 112.818 21.1645 112.45 21.3245C112.09 21.4845 111.678 21.5645 111.214 21.5645ZM117.528 21.5525C116.952 21.5525 116.428 21.4165 115.956 21.1445C115.492 20.8645 115.12 20.4885 114.84 20.0165C114.568 19.5445 114.432 19.0165 114.432 18.4325C114.432 17.8565 114.564 17.3365 114.828 16.8725C115.092 16.4005 115.448 16.0285 115.896 15.7565C116.344 15.4765 116.844 15.3365 117.396 15.3365C117.932 15.3365 118.412 15.4765 118.836 15.7565C119.268 16.0285 119.608 16.4005 119.856 16.8725C120.112 17.3365 120.24 17.8565 120.24 18.4325V18.7085H115.308C115.356 19.1005 115.48 19.4525 115.68 19.7645C115.888 20.0765 116.156 20.3245 116.484 20.5085C116.812 20.6845 117.172 20.7725 117.564 20.7725C117.876 20.7725 118.18 20.7245 118.476 20.6285C118.772 20.5325 119.02 20.3965 119.22 20.2205L119.772 20.8085C119.436 21.0565 119.084 21.2445 118.716 21.3725C118.356 21.4925 117.96 21.5525 117.528 21.5525ZM115.332 18.0005H119.352C119.304 17.6405 119.184 17.3205 118.992 17.0405C118.808 16.7525 118.576 16.5285 118.296 16.3685C118.016 16.2005 117.708 16.1165 117.372 16.1165C117.028 16.1165 116.712 16.1965 116.424 16.3565C116.136 16.5165 115.896 16.7405 115.704 17.0285C115.512 17.3085 115.388 17.6325 115.332 18.0005Z" fill="black"/>
<path d="M24.0784 21.5645C23.5104 21.5645 22.9904 21.4285 22.5184 21.1565C22.0544 20.8765 21.6864 20.5005 21.4144 20.0285C21.1424 19.5565 21.0064 19.0285 21.0064 18.4445C21.0064 17.8605 21.1424 17.3325 21.4144 16.8605C21.6864 16.3885 22.0544 16.0165 22.5184 15.7445C22.9904 15.4645 23.5104 15.3245 24.0784 15.3245C24.6544 15.3245 25.1744 15.4645 25.6384 15.7445C26.1024 16.0165 26.4704 16.3885 26.7424 16.8605C27.0144 17.3325 27.1504 17.8605 27.1504 18.4445C27.1504 19.0285 27.0144 19.5565 26.7424 20.0285C26.4704 20.5005 26.1024 20.8765 25.6384 21.1565C25.1744 21.4285 24.6544 21.5645 24.0784 21.5645ZM24.0784 20.7725C24.4864 20.7725 24.8544 20.6685 25.1824 20.4605C25.5184 20.2525 25.7824 19.9725 25.9744 19.6205C26.1744 19.2685 26.2744 18.8765 26.2744 18.4445C26.2744 18.0045 26.1744 17.6125 25.9744 17.2685C25.7824 16.9165 25.5184 16.6365 25.1824 16.4285C24.8544 16.2205 24.4864 16.1165 24.0784 16.1165C23.6704 16.1165 23.2984 16.2205 22.9624 16.4285C22.6344 16.6365 22.3704 16.9165 22.1704 17.2685C21.9784 17.6125 21.8824 18.0045 21.8824 18.4445C21.8824 18.8765 21.9784 19.2685 22.1704 19.6205C22.3704 19.9725 22.6344 20.2525 22.9624 20.4605C23.2984 20.6685 23.6704 20.7725 24.0784 20.7725ZM28.384 21.4445V15.4325H29.272V16.2845C29.456 15.9725 29.688 15.7325 29.968 15.5645C30.256 15.3885 30.584 15.3005 30.952 15.3005C31.16 15.3005 31.348 15.3285 31.516 15.3845V16.2005C31.412 16.1605 31.308 16.1325 31.204 16.1165C31.1 16.1005 30.996 16.0925 30.892 16.0925C30.524 16.0925 30.2 16.2005 29.92 16.4165C29.648 16.6245 29.432 16.9285 29.272 17.3285V21.4445H28.384ZM34.8585 21.5405C34.2985 21.5405 33.7865 21.4045 33.3225 21.1325C32.8665 20.8525 32.5025 20.4805 32.2305 20.0165C31.9665 19.5445 31.8345 19.0165 31.8345 18.4325C31.8345 17.8485 31.9665 17.3245 32.2305 16.8605C32.5025 16.3965 32.8665 16.0285 33.3225 15.7565C33.7865 15.4765 34.3025 15.3365 34.8705 15.3365C35.2225 15.3365 35.5625 15.3965 35.8905 15.5165C36.2185 15.6285 36.5185 15.7965 36.7905 16.0205V13.0445L37.6785 12.8405V21.4445H36.8025V20.8085C36.2745 21.2965 35.6265 21.5405 34.8585 21.5405ZM34.9425 20.7605C35.3185 20.7605 35.6665 20.6885 35.9865 20.5445C36.3145 20.3925 36.5825 20.1845 36.7905 19.9205V16.9445C36.5825 16.6885 36.3145 16.4885 35.9865 16.3445C35.6665 16.1925 35.3185 16.1165 34.9425 16.1165C34.5265 16.1165 34.1465 16.2165 33.8025 16.4165C33.4665 16.6165 33.1985 16.8925 32.9985 17.2445C32.8065 17.5885 32.7105 17.9805 32.7105 18.4205C32.7105 18.8605 32.8065 19.2565 32.9985 19.6085C33.1985 19.9605 33.4665 20.2405 33.8025 20.4485C34.1465 20.6565 34.5265 20.7605 34.9425 20.7605ZM42.0087 21.5525C41.4327 21.5525 40.9087 21.4165 40.4367 21.1445C39.9727 20.8645 39.6007 20.4885 39.3207 20.0165C39.0487 19.5445 38.9127 19.0165 38.9127 18.4325C38.9127 17.8565 39.0447 17.3365 39.3087 16.8725C39.5727 16.4005 39.9287 16.0285 40.3767 15.7565C40.8247 15.4765 41.3247 15.3365 41.8767 15.3365C42.4127 15.3365 42.8927 15.4765 43.3167 15.7565C43.7487 16.0285 44.0887 16.4005 44.3367 16.8725C44.5927 17.3365 44.7207 17.8565 44.7207 18.4325V18.7085H39.7887C39.8367 19.1005 39.9607 19.4525 40.1607 19.7645C40.3687 20.0765 40.6367 20.3245 40.9647 20.5085C41.2927 20.6845 41.6527 20.7725 42.0447 20.7725C42.3567 20.7725 42.6607 20.7245 42.9567 20.6285C43.2527 20.5325 43.5007 20.3965 43.7007 20.2205L44.2527 20.8085C43.9167 21.0565 43.5647 21.2445 43.1967 21.3725C42.8367 21.4925 42.4407 21.5525 42.0087 21.5525ZM39.8127 18.0005H43.8327C43.7847 17.6405 43.6647 17.3205 43.4727 17.0405C43.2887 16.7525 43.0567 16.5285 42.7767 16.3685C42.4967 16.2005 42.1887 16.1165 41.8527 16.1165C41.5087 16.1165 41.1927 16.1965 40.9047 16.3565C40.6167 16.5165 40.3767 16.7405 40.1847 17.0285C39.9927 17.3085 39.8687 17.6325 39.8127 18.0005ZM45.9621 21.4445V15.4325H46.8501V16.2845C47.0341 15.9725 47.2661 15.7325 47.5461 15.5645C47.8341 15.3885 48.1621 15.3005 48.5301 15.3005C48.7381 15.3005 48.9261 15.3285 49.0941 15.3845V16.2005C48.9901 16.1605 48.8861 16.1325 48.7821 16.1165C48.6781 16.1005 48.5741 16.0925 48.4701 16.0925C48.1021 16.0925 47.7781 16.2005 47.4981 16.4165C47.2261 16.6245 47.0101 16.9285 46.8501 17.3285V21.4445H45.9621Z" fill="black"/>
<path d="M31.8517 45.11C31.3717 45.11 30.9217 45.0267 30.5017 44.86C30.0884 44.6933 29.7217 44.4467 29.4017 44.12L29.8817 43.65C30.1751 43.9433 30.4751 44.1567 30.7817 44.29C31.0951 44.4167 31.4484 44.48 31.8417 44.48C32.1817 44.48 32.4817 44.42 32.7417 44.3C33.0084 44.18 33.2151 44.0133 33.3617 43.8C33.5084 43.5867 33.5817 43.3433 33.5817 43.07C33.5817 42.81 33.5151 42.58 33.3817 42.38C33.2551 42.1733 33.0784 42.0133 32.8517 41.9C32.6251 41.7867 32.3651 41.73 32.0717 41.73H31.2417V41.11H32.0417C32.4217 41.11 32.7284 40.9933 32.9617 40.76C33.2017 40.5267 33.3217 40.2233 33.3217 39.85C33.3217 39.6033 33.2551 39.38 33.1217 39.18C32.9884 38.98 32.8051 38.8233 32.5717 38.71C32.3451 38.59 32.0884 38.53 31.8017 38.53C31.4417 38.53 31.1184 38.5967 30.8317 38.73C30.5517 38.8567 30.2651 39.0733 29.9717 39.38L29.4917 38.9C29.8051 38.5667 30.1584 38.3167 30.5517 38.15C30.9451 37.9767 31.3651 37.89 31.8117 37.89C32.2384 37.89 32.6184 37.9733 32.9517 38.14C33.2917 38.3067 33.5584 38.5367 33.7517 38.83C33.9451 39.1167 34.0417 39.4433 34.0417 39.81C34.0417 40.1767 33.9217 40.5067 33.6817 40.8C33.4417 41.0867 33.1251 41.2867 32.7317 41.4C33.2051 41.5067 33.5851 41.7133 33.8717 42.02C34.1584 42.3267 34.3017 42.6833 34.3017 43.09C34.3017 43.4767 34.1951 43.8233 33.9817 44.13C33.7751 44.4367 33.4851 44.6767 33.1117 44.85C32.7451 45.0233 32.3251 45.11 31.8517 45.11ZM37.042 45.09C36.6754 45.09 36.352 45.0267 36.072 44.9C35.7987 44.7733 35.582 44.5967 35.422 44.37C35.2687 44.1433 35.192 43.88 35.192 43.58C35.192 43.1067 35.372 42.7333 35.732 42.46C36.092 42.1867 36.5787 42.05 37.192 42.05C37.732 42.05 38.222 42.1633 38.662 42.39V41.73C38.662 41.33 38.5487 41.03 38.322 40.83C38.0954 40.6233 37.7654 40.52 37.332 40.52C37.0854 40.52 36.8354 40.5567 36.582 40.63C36.3354 40.6967 36.062 40.8067 35.762 40.96L35.482 40.39C35.842 40.2167 36.1754 40.09 36.482 40.01C36.7887 39.93 37.0954 39.89 37.402 39.89C38.0354 39.89 38.522 40.04 38.862 40.34C39.2087 40.64 39.382 41.07 39.382 41.63V45H38.662V44.51C38.4354 44.7033 38.1854 44.85 37.912 44.95C37.6454 45.0433 37.3554 45.09 37.042 45.09ZM35.902 43.56C35.902 43.84 36.0187 44.07 36.252 44.25C36.492 44.4233 36.7987 44.51 37.172 44.51C37.472 44.51 37.7454 44.4633 37.992 44.37C38.2387 44.2767 38.462 44.13 38.662 43.93V42.99C38.4554 42.85 38.2354 42.75 38.002 42.69C37.7687 42.6233 37.5054 42.59 37.212 42.59C36.812 42.59 36.492 42.68 36.252 42.86C36.0187 43.0333 35.902 43.2667 35.902 43.56Z" fill="black"/>
<path d="M76.3548 47.4104V40.4504H76.7948V41.0404C77.2415 40.5804 77.8048 40.3504 78.4848 40.3504C78.9448 40.3437 79.3582 40.457 79.7248 40.6904C80.0982 40.917 80.3915 41.2237 80.6048 41.6104C80.8248 41.997 80.9348 42.4304 80.9348 42.9104C80.9348 43.3837 80.8248 43.817 80.6048 44.2104C80.3915 44.597 80.0982 44.9037 79.7248 45.1304C79.3582 45.357 78.9448 45.4704 78.4848 45.4704C78.1715 45.4704 77.8682 45.4104 77.5748 45.2904C77.2882 45.1637 77.0282 44.997 76.7948 44.7904V47.4104H76.3548ZM78.4848 45.0504C78.8582 45.0504 79.1948 44.957 79.4948 44.7704C79.8015 44.577 80.0415 44.3204 80.2148 44.0004C80.3948 43.6737 80.4848 43.3104 80.4848 42.9104C80.4848 42.5104 80.3948 42.1504 80.2148 41.8304C80.0415 41.5037 79.8015 41.247 79.4948 41.0604C79.1948 40.867 78.8582 40.7704 78.4848 40.7704C78.1182 40.7704 77.7848 40.847 77.4848 41.0004C77.1915 41.147 76.9615 41.3437 76.7948 41.5904V44.2304C76.9682 44.4637 77.2048 44.6604 77.5048 44.8204C77.8048 44.9737 78.1315 45.0504 78.4848 45.0504ZM83.9277 45.4704C83.5611 45.4704 83.2344 45.3937 82.9477 45.2404C82.6677 45.0804 82.4477 44.8604 82.2877 44.5804C82.1277 44.2937 82.0477 43.9637 82.0477 43.5904V40.4504H82.4877V43.4704C82.4877 43.957 82.6244 44.3437 82.8977 44.6304C83.1711 44.917 83.5477 45.0604 84.0277 45.0604C84.3611 45.0604 84.6611 44.9804 84.9277 44.8204C85.1944 44.6604 85.4044 44.437 85.5577 44.1504V40.4504H85.9977V45.3704H85.5577V44.6904C85.1711 45.2104 84.6277 45.4704 83.9277 45.4704ZM88.7607 45.4704C88.3807 45.4704 88.0174 45.4037 87.6707 45.2704C87.3307 45.1304 87.044 44.9304 86.8107 44.6704L87.1507 44.3904C87.3507 44.597 87.5907 44.7604 87.8707 44.8804C88.1574 45.0004 88.454 45.0604 88.7607 45.0604C89.214 45.0604 89.5774 44.9637 89.8507 44.7704C90.1307 44.5704 90.2707 44.3137 90.2707 44.0004C90.2707 43.767 90.1874 43.5737 90.0207 43.4204C89.854 43.267 89.584 43.167 89.2107 43.1204L88.4007 43.0204C87.934 42.967 87.5774 42.8304 87.3307 42.6104C87.0907 42.3904 86.9707 42.097 86.9707 41.7304C86.9707 41.457 87.044 41.217 87.1907 41.0104C87.3374 40.8037 87.5407 40.6437 87.8007 40.5304C88.0674 40.4104 88.374 40.3504 88.7207 40.3504C89.054 40.3504 89.374 40.4004 89.6807 40.5004C89.9874 40.6004 90.2974 40.7637 90.6107 40.9904L90.3507 41.3504C90.0707 41.1504 89.8007 41.0037 89.5407 40.9104C89.2874 40.8104 89.0174 40.7604 88.7307 40.7604C88.344 40.7604 88.0274 40.8437 87.7807 41.0104C87.534 41.1704 87.4107 41.4104 87.4107 41.7304C87.4107 41.9704 87.4907 42.1637 87.6507 42.3104C87.8174 42.457 88.084 42.5537 88.4507 42.6004L89.2507 42.7004C89.744 42.7604 90.1107 42.9037 90.3507 43.1304C90.5907 43.357 90.7107 43.647 90.7107 44.0004C90.7107 44.2804 90.6274 44.5337 90.4607 44.7604C90.294 44.9804 90.064 45.1537 89.7707 45.2804C89.484 45.407 89.1474 45.4704 88.7607 45.4704ZM91.5892 45.3704V38.3704L92.0292 38.2604V41.1404C92.4292 40.6137 92.9726 40.3504 93.6592 40.3504C94.0326 40.3504 94.3592 40.4304 94.6392 40.5904C94.9259 40.7437 95.1459 40.9637 95.2992 41.2504C95.4592 41.5304 95.5392 41.857 95.5392 42.2304V45.3704H95.0992V42.3504C95.0992 41.857 94.9626 41.4704 94.6892 41.1904C94.4159 40.9037 94.0392 40.7604 93.5592 40.7604C93.2259 40.7604 92.9259 40.8404 92.6592 41.0004C92.3926 41.1537 92.1826 41.377 92.0292 41.6704V45.3704H91.5892ZM99.0892 47.4104V40.4504H99.5292V41.0404C99.9759 40.5804 100.539 40.3504 101.219 40.3504C101.679 40.3437 102.093 40.457 102.459 40.6904C102.833 40.917 103.126 41.2237 103.339 41.6104C103.559 41.997 103.669 42.4304 103.669 42.9104C103.669 43.3837 103.559 43.817 103.339 44.2104C103.126 44.597 102.833 44.9037 102.459 45.1304C102.093 45.357 101.679 45.4704 101.219 45.4704C100.906 45.4704 100.603 45.4104 100.309 45.2904C100.023 45.1637 99.7626 44.997 99.5292 44.7904V47.4104H99.0892ZM101.219 45.0504C101.593 45.0504 101.929 44.957 102.229 44.7704C102.536 44.577 102.776 44.3204 102.949 44.0004C103.129 43.6737 103.219 43.3104 103.219 42.9104C103.219 42.5104 103.129 42.1504 102.949 41.8304C102.776 41.5037 102.536 41.247 102.229 41.0604C101.929 40.867 101.593 40.7704 101.219 40.7704C100.853 40.7704 100.519 40.847 100.219 41.0004C99.9259 41.147 99.6959 41.3437 99.5292 41.5904V44.2304C99.7026 44.4637 99.9392 44.6604 100.239 44.8204C100.539 44.9737 100.866 45.0504 101.219 45.0504ZM104.812 45.3604V40.4404H105.252V41.2204C105.392 40.947 105.582 40.7337 105.822 40.5804C106.069 40.4204 106.345 40.3404 106.652 40.3404C106.785 40.3404 106.929 40.3537 107.082 40.3804V40.8304C107.009 40.8037 106.935 40.787 106.862 40.7804C106.789 40.767 106.719 40.7604 106.652 40.7604C106.325 40.7604 106.042 40.8604 105.802 41.0604C105.569 41.2537 105.385 41.537 105.252 41.9104V45.3604H104.812ZM109.708 45.4704C109.254 45.4704 108.841 45.357 108.468 45.1304C108.094 44.9037 107.798 44.597 107.578 44.2104C107.364 43.8237 107.258 43.3904 107.258 42.9104C107.258 42.4304 107.361 41.997 107.568 41.6104C107.781 41.2237 108.071 40.917 108.438 40.6904C108.804 40.4637 109.214 40.3504 109.668 40.3504C110.094 40.3504 110.474 40.4637 110.808 40.6904C111.141 40.917 111.404 41.2204 111.598 41.6004C111.798 41.9737 111.898 42.3904 111.898 42.8504V43.0304H107.708C107.728 43.4104 107.828 43.7537 108.008 44.0604C108.188 44.3604 108.424 44.6004 108.718 44.7804C109.018 44.9604 109.348 45.0504 109.708 45.0504C109.988 45.0504 110.264 45.007 110.538 44.9204C110.811 44.827 111.044 44.7037 111.238 44.5504L111.498 44.9004C111.231 45.0937 110.948 45.237 110.648 45.3304C110.348 45.4237 110.034 45.4704 109.708 45.4704ZM107.728 42.6104H111.428C111.394 42.2704 111.298 41.9637 111.138 41.6904C110.978 41.4104 110.771 41.187 110.518 41.0204C110.264 40.8537 109.978 40.7704 109.658 40.7704C109.318 40.7704 109.008 40.8504 108.728 41.0104C108.454 41.1704 108.228 41.3904 108.048 41.6704C107.874 41.9437 107.768 42.257 107.728 42.6104ZM114.425 45.4704C114.045 45.4704 113.681 45.4037 113.335 45.2704C112.995 45.1304 112.708 44.9304 112.475 44.6704L112.815 44.3904C113.015 44.597 113.255 44.7604 113.535 44.8804C113.821 45.0004 114.118 45.0604 114.425 45.0604C114.878 45.0604 115.241 44.9637 115.515 44.7704C115.795 44.5704 115.935 44.3137 115.935 44.0004C115.935 43.767 115.851 43.5737 115.685 43.4204C115.518 43.267 115.248 43.167 114.875 43.1204L114.065 43.0204C113.598 42.967 113.241 42.8304 112.995 42.6104C112.755 42.3904 112.635 42.097 112.635 41.7304C112.635 41.457 112.708 41.217 112.855 41.0104C113.001 40.8037 113.205 40.6437 113.465 40.5304C113.731 40.4104 114.038 40.3504 114.385 40.3504C114.718 40.3504 115.038 40.4004 115.345 40.5004C115.651 40.6004 115.961 40.7637 116.275 40.9904L116.015 41.3504C115.735 41.1504 115.465 41.0037 115.205 40.9104C114.951 40.8104 114.681 40.7604 114.395 40.7604C114.008 40.7604 113.691 40.8437 113.445 41.0104C113.198 41.1704 113.075 41.4104 113.075 41.7304C113.075 41.9704 113.155 42.1637 113.315 42.3104C113.481 42.457 113.748 42.5537 114.115 42.6004L114.915 42.7004C115.408 42.7604 115.775 42.9037 116.015 43.1304C116.255 43.357 116.375 43.647 116.375 44.0004C116.375 44.2804 116.291 44.5337 116.125 44.7604C115.958 44.9804 115.728 45.1537 115.435 45.2804C115.148 45.407 114.811 45.4704 114.425 45.4704ZM118.653 45.4704C118.273 45.4704 117.91 45.4037 117.563 45.2704C117.223 45.1304 116.937 44.9304 116.703 44.6704L117.043 44.3904C117.243 44.597 117.483 44.7604 117.763 44.8804C118.05 45.0004 118.347 45.0604 118.653 45.0604C119.107 45.0604 119.47 44.9637 119.743 44.7704C120.023 44.5704 120.163 44.3137 120.163 44.0004C120.163 43.767 120.08 43.5737 119.913 43.4204C119.747 43.267 119.477 43.167 119.103 43.1204L118.293 43.0204C117.827 42.967 117.47 42.8304 117.223 42.6104C116.983 42.3904 116.863 42.097 116.863 41.7304C116.863 41.457 116.937 41.217 117.083 41.0104C117.23 40.8037 117.433 40.6437 117.693 40.5304C117.96 40.4104 118.267 40.3504 118.613 40.3504C118.947 40.3504 119.267 40.4004 119.573 40.5004C119.88 40.6004 120.19 40.7637 120.503 40.9904L120.243 41.3504C119.963 41.1504 119.693 41.0037 119.433 40.9104C119.18 40.8104 118.91 40.7604 118.623 40.7604C118.237 40.7604 117.92 40.8437 117.673 41.0104C117.427 41.1704 117.303 41.4104 117.303 41.7304C117.303 41.9704 117.383 42.1637 117.543 42.3104C117.71 42.457 117.977 42.5537 118.343 42.6004L119.143 42.7004C119.637 42.7604 120.003 42.9037 120.243 43.1304C120.483 43.357 120.603 43.647 120.603 44.0004C120.603 44.2804 120.52 44.5337 120.353 44.7604C120.187 44.9804 119.957 45.1537 119.663 45.2804C119.377 45.407 119.04 45.4704 118.653 45.4704Z" fill="black"/>
<path d="M161.298 45.3704V43.4004H157.348V43.0504L161.278 38.3704H161.738V42.9804H162.568V43.4004H161.738V45.3704H161.298ZM157.958 42.9804H161.298V39.0104L157.958 42.9804Z" fill="black"/>
<path d="M199.003 45.4804C198.543 45.4804 198.13 45.397 197.763 45.2304C197.396 45.057 197.106 44.8204 196.893 44.5204C196.68 44.2204 196.573 43.8804 196.573 43.5004C196.573 43.207 196.646 42.9337 196.793 42.6804C196.946 42.427 197.153 42.207 197.413 42.0204C197.673 41.8337 197.973 41.7004 198.313 41.6204C197.873 41.507 197.523 41.307 197.263 41.0204C197.003 40.727 196.873 40.3904 196.873 40.0104C196.873 39.677 196.966 39.3804 197.153 39.1204C197.34 38.8537 197.593 38.6437 197.913 38.4904C198.233 38.337 198.593 38.2604 198.993 38.2604C199.4 38.2604 199.763 38.337 200.083 38.4904C200.403 38.6437 200.656 38.8537 200.843 39.1204C201.03 39.3804 201.123 39.677 201.123 40.0104C201.123 40.3904 200.993 40.727 200.733 41.0204C200.48 41.307 200.136 41.507 199.703 41.6204C200.216 41.7404 200.63 41.9704 200.943 42.3104C201.256 42.6504 201.413 43.047 201.413 43.5004C201.413 43.8804 201.306 44.2204 201.093 44.5204C200.886 44.8204 200.603 45.057 200.243 45.2304C199.883 45.397 199.47 45.4804 199.003 45.4804ZM198.993 41.4504C199.313 41.4504 199.6 41.3904 199.853 41.2704C200.106 41.1437 200.306 40.977 200.453 40.7704C200.6 40.557 200.673 40.3204 200.673 40.0604C200.673 39.8004 200.6 39.567 200.453 39.3604C200.306 39.1537 200.106 38.9904 199.853 38.8704C199.6 38.7437 199.313 38.6804 198.993 38.6804C198.68 38.6804 198.396 38.7437 198.143 38.8704C197.89 38.9904 197.69 39.1537 197.543 39.3604C197.396 39.567 197.323 39.8004 197.323 40.0604C197.323 40.3204 197.396 40.557 197.543 40.7704C197.69 40.977 197.89 41.1437 198.143 41.2704C198.396 41.3904 198.68 41.4504 198.993 41.4504ZM198.993 45.0604C199.36 45.0604 199.69 44.9904 199.983 44.8504C200.283 44.7104 200.52 44.5204 200.693 44.2804C200.866 44.0337 200.953 43.7637 200.953 43.4704C200.953 43.1704 200.866 42.9004 200.693 42.6604C200.52 42.4137 200.283 42.2204 199.983 42.0804C199.69 41.9404 199.36 41.8704 198.993 41.8704C198.626 41.8704 198.293 41.9404 197.993 42.0804C197.7 42.2204 197.466 42.4137 197.293 42.6604C197.12 42.9004 197.033 43.1704 197.033 43.4704C197.033 43.7637 197.12 44.0337 197.293 44.2804C197.466 44.5204 197.7 44.7104 197.993 44.8504C198.293 44.9904 198.626 45.0604 198.993 45.0604ZM202.567 42.7904V42.3504H205.927V42.7904H202.567ZM207.509 45.3704V38.8804L206.419 39.3904V38.9304L207.609 38.3704H207.949V45.3704H207.509ZM211.976 45.4804C211.45 45.4804 210.98 45.3304 210.566 45.0304C210.153 44.7304 209.826 44.3104 209.586 43.7704C209.346 43.2237 209.226 42.5904 209.226 41.8704C209.226 41.1504 209.346 40.5204 209.586 39.9804C209.826 39.4337 210.153 39.0104 210.566 38.7104C210.98 38.4104 211.45 38.2604 211.976 38.2604C212.503 38.2604 212.973 38.4104 213.386 38.7104C213.8 39.0104 214.126 39.4337 214.366 39.9804C214.606 40.5204 214.726 41.1504 214.726 41.8704C214.726 42.5904 214.606 43.2237 214.366 43.7704C214.126 44.3104 213.8 44.7304 213.386 45.0304C212.973 45.3304 212.503 45.4804 211.976 45.4804ZM211.976 45.0604C212.43 45.0604 212.826 44.9337 213.166 44.6804C213.513 44.4204 213.783 44.0537 213.976 43.5804C214.17 43.1004 214.266 42.5304 214.266 41.8704C214.266 41.2104 214.17 40.6437 213.976 40.1704C213.783 39.6904 213.513 39.3237 213.166 39.0704C212.826 38.8104 212.43 38.6804 211.976 38.6804C211.523 38.6804 211.123 38.8104 210.776 39.0704C210.436 39.3237 210.17 39.6904 209.976 40.1704C209.783 40.6437 209.686 41.2104 209.686 41.8704C209.686 42.5304 209.783 43.1004 209.976 43.5804C210.17 44.0537 210.436 44.4204 210.776 44.6804C211.123 44.9337 211.523 45.0604 211.976 45.0604Z" fill="black"/>
<path d="M150.747 21.6386C150.251 21.6386 149.783 21.5586 149.343 21.3986C148.911 21.2306 148.535 20.9986 148.215 20.7026L148.755 20.1266C149.035 20.3826 149.343 20.5826 149.679 20.7266C150.015 20.8626 150.359 20.9306 150.711 20.9306C151.191 20.9306 151.583 20.8306 151.887 20.6306C152.191 20.4306 152.343 20.1706 152.343 19.8506C152.343 19.5866 152.251 19.3826 152.067 19.2386C151.891 19.0866 151.611 18.9826 151.227 18.9266L150.183 18.7826C149.583 18.6946 149.135 18.5146 148.839 18.2426C148.551 17.9706 148.407 17.6026 148.407 17.1386C148.407 16.8026 148.503 16.5026 148.695 16.2386C148.887 15.9746 149.151 15.7666 149.487 15.6146C149.831 15.4626 150.223 15.3866 150.663 15.3866C151.103 15.3866 151.515 15.4506 151.899 15.5786C152.283 15.7066 152.659 15.9066 153.027 16.1786L152.559 16.7786C152.223 16.5466 151.895 16.3786 151.575 16.2746C151.263 16.1626 150.943 16.1066 150.615 16.1066C150.199 16.1066 149.863 16.1986 149.607 16.3826C149.351 16.5666 149.223 16.8066 149.223 17.1026C149.223 17.3746 149.311 17.5826 149.487 17.7266C149.663 17.8626 149.947 17.9586 150.339 18.0146L151.383 18.1586C151.983 18.2386 152.431 18.4146 152.727 18.6866C153.031 18.9586 153.183 19.3306 153.183 19.8026C153.183 20.1466 153.075 20.4586 152.859 20.7386C152.643 21.0186 152.351 21.2386 151.983 21.3986C151.623 21.5586 151.211 21.6386 150.747 21.6386ZM157.061 21.6266C156.485 21.6266 155.961 21.4906 155.489 21.2186C155.025 20.9386 154.653 20.5626 154.373 20.0906C154.101 19.6186 153.965 19.0906 153.965 18.5066C153.965 17.9306 154.097 17.4106 154.361 16.9466C154.625 16.4746 154.981 16.1026 155.429 15.8306C155.877 15.5506 156.377 15.4106 156.929 15.4106C157.465 15.4106 157.945 15.5506 158.369 15.8306C158.801 16.1026 159.141 16.4746 159.389 16.9466C159.645 17.4106 159.773 17.9306 159.773 18.5066V18.7826H154.841C154.889 19.1746 155.013 19.5266 155.213 19.8386C155.421 20.1506 155.689 20.3986 156.017 20.5826C156.345 20.7586 156.705 20.8466 157.097 20.8466C157.409 20.8466 157.713 20.7986 158.009 20.7026C158.305 20.6066 158.553 20.4706 158.753 20.2946L159.305 20.8826C158.969 21.1306 158.617 21.3186 158.249 21.4466C157.889 21.5666 157.493 21.6266 157.061 21.6266ZM154.865 18.0746H158.885C158.837 17.7146 158.717 17.3946 158.525 17.1146C158.341 16.8266 158.109 16.6026 157.829 16.4426C157.549 16.2746 157.241 16.1906 156.905 16.1906C156.561 16.1906 156.245 16.2706 155.957 16.4306C155.669 16.5906 155.429 16.8146 155.237 17.1026C155.045 17.3826 154.921 17.7066 154.865 18.0746ZM163.202 21.6386C162.682 21.6386 162.282 21.5146 162.002 21.2666C161.722 21.0186 161.582 20.6586 161.582 20.1866V16.2626H160.286V15.5066H161.582V13.9826L162.458 13.7546V15.5066H164.27V16.2626H162.458V19.9586C162.458 20.2786 162.53 20.5106 162.674 20.6546C162.818 20.7906 163.054 20.8586 163.382 20.8586C163.55 20.8586 163.698 20.8466 163.826 20.8226C163.962 20.7986 164.106 20.7586 164.258 20.7026V21.4826C164.106 21.5386 163.934 21.5786 163.742 21.6026C163.558 21.6266 163.378 21.6386 163.202 21.6386ZM167.258 21.6386C166.762 21.6386 166.294 21.5586 165.854 21.3986C165.422 21.2306 165.046 20.9986 164.726 20.7026L165.266 20.1266C165.546 20.3826 165.854 20.5826 166.19 20.7266C166.526 20.8626 166.87 20.9306 167.222 20.9306C167.702 20.9306 168.094 20.8306 168.398 20.6306C168.702 20.4306 168.854 20.1706 168.854 19.8506C168.854 19.5866 168.762 19.3826 168.578 19.2386C168.402 19.0866 168.122 18.9826 167.738 18.9266L166.694 18.7826C166.094 18.6946 165.646 18.5146 165.35 18.2426C165.062 17.9706 164.918 17.6026 164.918 17.1386C164.918 16.8026 165.014 16.5026 165.206 16.2386C165.398 15.9746 165.662 15.7666 165.998 15.6146C166.342 15.4626 166.734 15.3866 167.174 15.3866C167.614 15.3866 168.026 15.4506 168.41 15.5786C168.794 15.7066 169.17 15.9066 169.538 16.1786L169.07 16.7786C168.734 16.5466 168.406 16.3786 168.086 16.2746C167.774 16.1626 167.454 16.1066 167.126 16.1066C166.71 16.1066 166.374 16.1986 166.118 16.3826C165.862 16.5666 165.734 16.8066 165.734 17.1026C165.734 17.3746 165.822 17.5826 165.998 17.7266C166.174 17.8626 166.458 17.9586 166.85 18.0146L167.894 18.1586C168.494 18.2386 168.942 18.4146 169.238 18.6866C169.542 18.9586 169.694 19.3306 169.694 19.8026C169.694 20.1466 169.586 20.4586 169.37 20.7386C169.154 21.0186 168.862 21.2386 168.494 21.3986C168.134 21.5586 167.722 21.6386 167.258 21.6386Z" fill="black"/>
<path d="M194.374 21.5186V15.5066H195.262V16.3586C195.446 16.0466 195.678 15.8066 195.958 15.6386C196.246 15.4626 196.574 15.3746 196.942 15.3746C197.15 15.3746 197.338 15.4026 197.506 15.4586V16.2746C197.402 16.2346 197.298 16.2066 197.194 16.1906C197.09 16.1746 196.986 16.1666 196.882 16.1666C196.514 16.1666 196.19 16.2746 195.91 16.4906C195.638 16.6986 195.422 17.0026 195.262 17.4026V21.5186H194.374ZM200.921 21.6266C200.345 21.6266 199.821 21.4906 199.349 21.2186C198.885 20.9386 198.513 20.5626 198.233 20.0906C197.961 19.6186 197.825 19.0906 197.825 18.5066C197.825 17.9306 197.957 17.4106 198.221 16.9466C198.485 16.4746 198.841 16.1026 199.289 15.8306C199.737 15.5506 200.237 15.4106 200.789 15.4106C201.325 15.4106 201.805 15.5506 202.229 15.8306C202.661 16.1026 203.001 16.4746 203.249 16.9466C203.505 17.4106 203.633 17.9306 203.633 18.5066V18.7826H198.701C198.749 19.1746 198.873 19.5266 199.073 19.8386C199.281 20.1506 199.549 20.3986 199.877 20.5826C200.205 20.7586 200.565 20.8466 200.957 20.8466C201.269 20.8466 201.573 20.7986 201.869 20.7026C202.165 20.6066 202.413 20.4706 202.613 20.2946L203.165 20.8826C202.829 21.1306 202.477 21.3186 202.109 21.4466C201.749 21.5666 201.353 21.6266 200.921 21.6266ZM198.725 18.0746H202.745C202.697 17.7146 202.577 17.3946 202.385 17.1146C202.201 16.8266 201.969 16.6026 201.689 16.4426C201.409 16.2746 201.101 16.1906 200.765 16.1906C200.421 16.1906 200.105 16.2706 199.817 16.4306C199.529 16.5906 199.289 16.8146 199.097 17.1026C198.905 17.3826 198.781 17.7066 198.725 18.0746ZM204.874 23.9666V15.5066H205.75V16.1546C206.27 15.6586 206.918 15.4106 207.694 15.4106C208.262 15.4106 208.774 15.5506 209.23 15.8306C209.686 16.1026 210.046 16.4706 210.31 16.9346C210.582 17.3986 210.718 17.9226 210.718 18.5066C210.718 19.0906 210.582 19.6186 210.31 20.0906C210.046 20.5546 209.686 20.9266 209.23 21.2066C208.774 21.4786 208.258 21.6146 207.682 21.6146C207.33 21.6146 206.99 21.5546 206.662 21.4346C206.334 21.3146 206.034 21.1426 205.762 20.9186V23.9666H204.874ZM207.61 20.8346C208.034 20.8346 208.414 20.7346 208.75 20.5346C209.086 20.3266 209.35 20.0506 209.542 19.7066C209.742 19.3546 209.842 18.9586 209.842 18.5186C209.842 18.0786 209.742 17.6826 209.542 17.3306C209.35 16.9786 209.086 16.7026 208.75 16.5026C208.414 16.2946 208.034 16.1906 207.61 16.1906C207.234 16.1906 206.882 16.2666 206.554 16.4186C206.234 16.5626 205.97 16.7666 205.762 17.0306V20.0066C205.97 20.2626 206.238 20.4666 206.566 20.6186C206.894 20.7626 207.242 20.8346 207.61 20.8346ZM213.872 21.6386C213.376 21.6386 212.908 21.5586 212.468 21.3986C212.036 21.2306 211.66 20.9986 211.34 20.7026L211.88 20.1266C212.16 20.3826 212.468 20.5826 212.804 20.7266C213.14 20.8626 213.484 20.9306 213.836 20.9306C214.316 20.9306 214.708 20.8306 215.012 20.6306C215.316 20.4306 215.468 20.1706 215.468 19.8506C215.468 19.5866 215.376 19.3826 215.192 19.2386C215.016 19.0866 214.736 18.9826 214.352 18.9266L213.308 18.7826C212.708 18.6946 212.26 18.5146 211.964 18.2426C211.676 17.9706 211.532 17.6026 211.532 17.1386C211.532 16.8026 211.628 16.5026 211.82 16.2386C212.012 15.9746 212.276 15.7666 212.612 15.6146C212.956 15.4626 213.348 15.3866 213.788 15.3866C214.228 15.3866 214.64 15.4506 215.024 15.5786C215.408 15.7066 215.784 15.9066 216.152 16.1786L215.684 16.7786C215.348 16.5466 215.02 16.3786 214.7 16.2746C214.388 16.1626 214.068 16.1066 213.74 16.1066C213.324 16.1066 212.988 16.1986 212.732 16.3826C212.476 16.5666 212.348 16.8066 212.348 17.1026C212.348 17.3746 212.436 17.5826 212.612 17.7266C212.788 17.8626 213.072 17.9586 213.464 18.0146L214.508 18.1586C215.108 18.2386 215.556 18.4146 215.852 18.6866C216.156 18.9586 216.308 19.3306 216.308 19.8026C216.308 20.1466 216.2 20.4586 215.984 20.7386C215.768 21.0186 215.476 21.2386 215.108 21.3986C214.748 21.5586 214.336 21.6386 213.872 21.6386Z" fill="black"/>
</svg>
