<svg width="295" height="19" viewBox="0 0 295 19" fill="none" xmlns="http://www.w3.org/2000/svg">
<g clip-path="url(#clip0_204_253)">
<path d="M6.40042 7.58107C8.7101 7.58107 11.1298 7.5021 13.4394 7.42313C14.4293 7.42313 15.3092 7.34416 16.299 7.34416C20.4785 7.18622 24.6579 7.02828 28.8373 6.87034C33.8966 6.7124 38.8459 6.47549 43.9052 6.31756C51.0542 6.00168 58.2032 5.76477 65.3522 5.44889C67.0019 5.36992 68.6517 5.36992 70.3015 5.29095C74.4809 5.13301 78.6603 4.97507 82.8397 4.89611C87.0191 4.73817 91.1985 4.58023 95.3779 4.50126C97.0277 4.42229 98.6775 4.34332 100.327 4.34332C106.926 4.18538 113.635 4.02744 120.234 3.8695C124.304 3.79053 128.373 3.71156 132.553 3.55362C134.203 3.55362 135.742 3.47466 137.392 3.47466C143.771 3.39569 150.26 3.31672 156.639 3.23775C163.018 3.15878 169.288 3.07981 175.667 3.00084C177.316 3.00084 178.966 3.00084 180.726 3.00084C184.905 3.00084 188.975 3.00084 193.154 3.00084C199.643 3.00084 206.022 3.00084 212.512 2.92187C214.601 2.92187 216.691 2.92187 218.781 2.92187C223.18 2.92187 227.579 2.92187 231.979 2.92187C232.309 2.92187 232.749 2.92187 233.079 2.92187C223.18 3.00084 213.171 3.07981 203.273 3.23775C199.093 3.31672 195.024 3.31672 190.845 3.39569C189.085 3.39569 187.215 3.39569 185.455 3.47466C179.406 3.55362 173.467 3.71156 167.418 3.79053C160.489 3.94847 153.56 4.02744 146.631 4.18538C145.421 4.18538 144.321 4.26435 143.111 4.26435C139.372 4.42229 135.742 4.50126 132.003 4.6592C124.524 4.89611 117.045 5.13301 109.566 5.36992C108.466 5.36992 107.366 5.44889 106.266 5.52786C102.637 5.6858 98.8975 5.92271 95.268 6.08065C88.6689 6.39652 82.1798 6.7124 75.5807 7.02828C73.821 7.10725 71.9512 7.26519 70.1915 7.34416C66.0121 7.58107 61.8327 7.81798 57.6532 8.13385C52.374 8.44973 46.9847 8.76561 41.7055 9.08149C34.3365 9.5553 26.8576 10.0291 19.4886 10.5029C17.7288 10.5819 15.9691 10.7398 14.0993 10.8188C10.9098 11.0557 7.72024 11.2926 4.53068 11.5295C4.20073 11.5295 3.87078 11.6875 3.87078 12.0034C3.87078 12.2403 4.20073 12.4772 4.53068 12.4772C5.74052 12.4772 6.84036 12.5561 8.05019 12.5561C7.83022 12.951 7.72024 13.1879 7.72024 13.4248C7.72024 14.2935 8.7101 15.0832 10.0299 15.0832C19.1586 14.6883 28.1774 14.2145 37.3061 13.8986C45.225 13.6617 53.1439 13.3458 61.0628 13.1089C69.7515 12.793 78.5503 12.4772 87.2391 12.2403C89.9887 12.1613 92.7383 12.0823 95.4879 11.9244C96.2578 11.9244 97.0277 11.8454 97.9076 11.8454C111.986 11.6085 126.064 11.2926 140.142 11.0557C147.621 10.8978 155.21 10.7398 162.689 10.6609C165.438 10.5819 168.078 10.5819 170.827 10.5029C185.235 10.345 199.643 10.1871 214.051 10.0291C220.21 9.95015 226.37 9.87118 232.529 9.79221C237.808 9.71324 243.087 9.71324 248.367 9.5553C252.766 9.47633 257.055 9.31839 261.455 9.23942C263.654 9.16045 265.854 9.16046 267.944 9.08149C272.893 8.84458 277.842 8.60767 282.792 8.37076C282.462 8.68664 282.462 9.16046 282.572 9.47633C282.682 9.87118 283.012 10.1871 283.562 10.345C284.001 10.5029 284.661 10.6609 285.101 10.5029C286.201 10.1871 287.301 9.87118 288.291 9.5553C288.291 9.5553 288.291 9.5553 288.181 9.5553C288.291 9.5553 288.291 9.47633 288.401 9.47633C288.511 9.47633 288.621 9.39736 288.621 9.39736H288.511C289.061 9.23942 289.611 9.08149 290.271 8.84458C290.821 8.68664 291.48 8.44973 292.03 8.29179C292.69 8.05488 293.24 7.81797 293.9 7.58107C294.56 7.34416 295 6.7124 295 6.15962C295 5.84374 294.89 5.60683 294.67 5.29095C294.45 4.97507 293.9 4.58023 293.35 4.50126C292.8 4.42229 292.25 4.34332 291.7 4.34332C291.59 4.34332 291.48 4.34332 291.37 4.34332C291.041 4.34332 290.601 4.34332 290.271 4.42229C289.391 4.50126 288.621 4.58023 287.741 4.58023C287.081 4.58023 286.421 4.6592 285.651 4.6592C283.782 4.73817 282.022 4.81714 280.152 4.97507C279.712 4.97507 279.162 5.05404 278.722 5.05404C278.942 4.89611 279.052 4.73817 279.052 4.58023C279.162 4.42229 279.162 4.26435 279.162 4.10641C279.162 4.02744 279.162 3.8695 279.272 3.79053C279.272 3.63259 279.272 3.47466 279.162 3.39569C279.162 3.39569 279.272 3.39569 279.272 3.31672C279.602 3.15878 279.932 3.00084 280.152 2.68496C280.372 2.44805 280.482 2.13217 280.482 1.8163C280.482 1.50042 280.372 1.26351 280.152 0.947633C280.042 0.868664 279.932 0.710725 279.822 0.631756C279.492 0.394847 279.162 0.315878 278.832 0.236908C278.172 0.0789694 277.402 0 276.633 0C275.973 0 275.423 0 274.763 0C273.883 0 273.003 0 272.123 0C270.913 0 269.594 0 268.384 0C265.084 0 261.785 0 258.485 0C255.406 0 252.216 0 249.136 0C246.277 0 243.527 0 240.668 0C229.339 0 218.121 0.0789694 206.792 0.157939C198.324 0.236908 189.855 0.315878 181.386 0.315878C177.646 0.315878 173.797 0.394847 170.057 0.473817C161.589 0.631756 153.12 0.710725 144.651 0.868664C142.231 0.868664 139.812 0.947633 137.392 0.947633C135.962 0.947633 134.642 1.0266 133.213 1.0266C124.854 1.26351 116.495 1.50042 108.136 1.73733C105.607 1.8163 103.077 1.89527 100.437 1.97424C99.0074 1.97424 97.5776 2.05321 96.1478 2.13217C87.789 2.44805 79.5402 2.76393 71.1813 3.07981C66.8919 3.23775 62.6026 3.39569 58.3131 3.63259C50.9442 3.94847 43.5752 4.26435 36.3162 4.6592C29.9371 4.97507 23.558 5.21198 17.1789 5.44889C16.1891 5.52786 15.1992 5.52786 14.0993 5.60683C12.4496 5.6858 10.7998 5.6858 9.15004 5.76477C7.72024 6.08065 6.18045 6.08065 4.75065 6.08065C4.64067 5.76477 4.20073 5.52786 3.87078 5.60683C2.88092 5.60683 2.00104 5.6858 1.01118 5.76477C0.57124 5.84374 0.131301 6.00168 0.0213166 6.31756C-0.088668 6.7124 0.241286 7.10725 0.681224 7.18622C1.12116 7.26519 1.5611 7.34416 2.00104 7.42313C2.44098 7.5021 2.77093 7.5021 3.21087 7.5021C4.31072 7.58107 5.30058 7.58107 6.40042 7.58107ZM263.764 5.05404C265.084 5.05404 266.514 5.05404 267.834 5.05404C267.944 5.29095 268.164 5.44889 268.384 5.60683C267.834 5.60683 267.284 5.6858 266.844 5.6858C265.854 5.6858 264.864 5.76477 263.874 5.76477C259.475 5.84374 255.186 6.00168 250.786 6.08065C248.806 6.15962 246.827 6.23859 244.847 6.23859C241.767 6.23859 238.578 6.31756 235.498 6.31756C228.349 6.39652 221.31 6.47549 214.161 6.55446C200.303 6.7124 186.555 6.87034 172.697 7.02828C162.799 7.10725 152.9 7.34416 143.001 7.58107C128.153 7.89694 113.195 8.13385 98.3475 8.44973C95.378 8.5287 92.4084 8.60767 89.4388 8.76561C80.97 9.08149 72.5012 9.31839 64.0323 9.63427C55.7835 9.95015 47.4247 10.1871 39.1758 10.5029C38.4059 10.5029 37.636 10.5819 36.8662 10.5819C39.0658 10.424 41.3755 10.345 43.5752 10.1871C51.3841 9.79221 59.193 9.31839 67.0019 8.92355C69.7515 8.76561 72.5012 8.60767 75.1408 8.44973C76.5706 8.37076 78.0004 8.29179 79.3202 8.29179C87.569 7.97591 95.7079 7.58107 103.847 7.26519C105.387 7.18622 107.036 7.10725 108.576 7.02828C110.886 6.94931 113.195 6.87034 115.395 6.87034C123.754 6.63343 132.113 6.39652 140.472 6.15962C142.341 6.08065 144.211 6.08065 145.971 6.00168C146.411 6.00168 146.961 6.00168 147.401 6.00168C148.72 6.00168 150.04 6.00168 151.25 5.92271C159.609 5.76477 168.078 5.6858 176.437 5.52786C180.286 5.44889 184.136 5.36992 187.985 5.36992C200.413 5.29095 212.951 5.21198 225.38 5.13301C238.358 5.13301 251.116 5.05404 263.764 5.05404Z" fill="#FFC00B"/>
<path d="M22.8776 18.6287C23.2101 18.6287 23.4796 18.4308 23.4796 18.1868C23.4796 17.9427 23.2101 17.7449 22.8776 17.7449C22.5451 17.7449 22.2755 17.9427 22.2755 18.1868C22.2755 18.4308 22.5451 18.6287 22.8776 18.6287Z" fill="#FFC00B"/>
</g>
<defs>
<clipPath id="clip0_204_253">
<rect width="295" height="18.6321" fill="white"/>
</clipPath>
</defs>
</svg>
